<?xml version="1.0" standalone="no"?>
<!DOCTYPE svg PUBLIC "-//W3C//DTD SVG 20010904//EN"
 "http://www.w3.org/TR/2001/REC-SVG-20010904/DTD/svg10.dtd">
<svg version="1.0" xmlns="http://www.w3.org/2000/svg"
 width="16.000000pt" height="16.000000pt" viewBox="0 0 16.000000 16.000000"
 preserveAspectRatio="xMidYMid meet">
<metadata>
Created by potrace 1.11, written by Peter Selinger 2001-2013
</metadata>
<g transform="translate(0.000000,16.000000) scale(0.002667,-0.002667)"
fill="#000000" stroke="none">
<path d="M63 5618 c-15 -4 -35 -18 -45 -30 -17 -22 -18 -159 -18 -2580 0
-1595 4 -2566 10 -2582 5 -14 19 -31 32 -38 18 -10 598 -12 2943 -13 1606 -1
2934 3 2951 7 18 5 39 19 48 33 15 22 16 252 16 2579 0 1593 -4 2564 -10 2580
-5 14 -19 31 -32 38 -18 10 -598 12 -2946 13 -1607 0 -2934 -3 -2949 -7z"/>
</g>
</svg>
